<svg width="160" height="35" viewBox="0 0 160 35" fill="none" xmlns="http://www.w3.org/2000/svg">
<g clip-path="url(#clip0_3_192)">
<path d="M7.53906 0.383057H14.7741V2.31553H12.3721V29.7034H10.2176V2.31553H7.53906V0.383057Z" fill="#333333"/>
<path d="M25.0866 4.41479C25.1254 4.41479 25.1448 4.5925 25.1448 4.9479C25.1448 5.3033 25.14 5.65869 25.1303 6.01408V6.53052C24.3636 6.53052 23.6842 6.70822 23.0922 7.06362C22.5099 7.40791 21.9374 8.03542 21.3745 8.94613V29.7036H19.2054V4.71466H21.3745V7.49676C21.6268 6.51941 22.0684 5.76419 22.6992 5.2311C23.3397 4.6869 24.1355 4.41479 25.0866 4.41479Z" fill="#333333"/>
<path d="M29.7072 4.71451H31.8908V29.7034H29.7072V4.71451ZM29.7072 0.0166016H31.8762V2.41553H29.7072V0.0166016Z" fill="#333333"/>
<path d="M44.416 12.0279C44.416 10.0732 44.3432 8.8571 44.1976 8.37954C44.0618 7.89087 43.8968 7.47438 43.7027 7.13009C43.5086 6.7858 43.1883 6.61366 42.7419 6.61366C42.2955 6.61366 41.9655 6.64697 41.752 6.71361C41.2279 6.8802 40.8446 7.36332 40.6019 8.16297C40.3593 8.95151 40.238 10.2509 40.238 12.0612V21.9901C40.238 24.1114 40.3836 25.6107 40.6747 26.4881C40.9756 27.3544 41.5385 27.7875 42.3634 27.7875C43.1883 27.7875 43.7367 27.3544 44.0084 26.4881C44.2801 25.6218 44.416 24.0947 44.416 21.9068V12.0279ZM40.238 6.63032C40.7524 5.23094 41.718 4.53125 43.1349 4.53125C44.1249 4.53125 44.8673 4.90886 45.3622 5.66408C45.8669 6.40819 46.1969 7.37443 46.3521 8.56279C46.5074 9.74004 46.5851 11.1616 46.5851 12.8275V21.7902C46.5851 21.8235 46.5851 21.8624 46.5851 21.9068C46.5851 25.0499 46.226 27.1878 45.5078 28.3206C44.7896 29.4424 43.8094 30.0032 42.5672 30.0032C42.0723 30.0032 41.6064 29.8033 41.1697 29.4035C40.7427 28.9926 40.4321 28.4928 40.238 27.9042V34.1181H38.069V4.7145H40.238V6.63032Z" fill="#333333"/>
<path d="M61.0377 5.01438L61.0523 5.69741C61.0523 6.89687 61.5957 9.02926 62.6827 12.0945C63.43 11.0283 64.0026 9.98439 64.4005 8.96262C64.8081 7.92975 65.0119 6.78026 65.0119 5.51415C65.0119 4.24805 64.8906 3.34845 64.6479 2.81535C64.4053 2.27115 63.8327 1.99905 62.9302 1.99905C61.7559 1.99905 61.1348 2.77093 61.0668 4.31469C61.0571 4.55902 61.0474 4.72006 61.0377 4.79781C61.0377 4.86444 61.0377 4.93663 61.0377 5.01438ZM67.2974 23.6227C68.6755 26.9324 69.5101 28.9592 69.8013 29.7034H67.9962C67.7438 29.0148 67.2295 27.7598 66.4531 25.9384C65.9678 27.1934 65.468 28.093 64.9537 28.6372C64.4393 29.1814 63.9249 29.5479 63.4106 29.7367C62.9059 29.9366 62.3236 30.0365 61.6637 30.0365C60.3438 30.0365 59.2762 29.5146 58.461 28.4706C57.6458 27.4266 57.2382 25.9939 57.2382 24.1725C57.2382 22.3511 57.3983 21.0017 57.7186 20.1243C58.0486 19.2469 58.3591 18.475 58.6503 17.8086C58.9414 17.1423 59.844 15.8318 61.358 13.8771C59.7372 9.72339 58.9269 6.98572 58.9269 5.66409C58.9269 1.8991 60.3147 0.0166016 63.0903 0.0166016C64.711 0.0166016 65.7737 0.505273 66.2784 1.48261C66.7927 2.45996 67.0499 3.82602 67.0499 5.58079C67.0499 7.33557 66.7103 8.86822 66.0309 10.1787C65.3613 11.4781 64.5169 12.8497 63.4979 14.2935C64.187 16.115 65.1138 18.4028 66.2784 21.1572C67.0645 19.2691 67.9282 17.692 68.8696 16.4259L69.8741 18.2085C69.0006 19.4524 68.1417 21.2571 67.2974 23.6227ZM65.3758 23.4395C63.9589 20.1743 62.9156 17.7254 62.246 16.0927C61.4308 17.3366 60.7611 18.5972 60.237 19.8744C59.713 21.1516 59.4461 22.6121 59.4364 24.2558C59.4364 26.7214 60.2662 27.9541 61.9257 27.9541C62.838 27.9541 63.6047 27.3433 64.2258 26.1216C64.5363 25.4886 64.9197 24.5945 65.3758 23.4395Z" fill="#333333"/>
<path d="M90.2807 0.383057H92.7118V29.7034H90.7466V17.1423L91.0814 5.33085L87.4275 29.0703H85.3603L81.5754 5.33085L81.9102 17.1423V29.7034H79.9304V0.383057H82.3615L86.3939 25.0054L90.2807 0.383057Z" fill="#333333"/>
<path d="M98.89 4.71451H101.074V29.7034H98.89V4.71451ZM98.89 0.0166016H101.059V2.41553H98.89V0.0166016Z" fill="#333333"/>
<path d="M109.421 7.16339C109.615 6.41928 110.042 5.77512 110.702 5.23092C111.372 4.67561 112.158 4.39795 113.06 4.39795C113.963 4.39795 114.705 4.82554 115.288 5.68072C115.87 6.53589 116.161 7.81866 116.161 9.52901V29.7034H113.992V9.3291C113.992 8.36286 113.798 7.66872 113.41 7.24669C113.031 6.81355 112.522 6.59698 111.881 6.59698C110.241 6.59698 109.421 7.52434 109.421 9.37907V29.7034H107.252V4.71448H109.421V7.16339Z" fill="#333333"/>
<path d="M128.089 12.4278C128.089 10.2843 127.944 8.78498 127.653 7.92981C127.371 7.06353 126.818 6.63039 125.993 6.63039C125.168 6.63039 124.615 7.07463 124.334 7.96313C124.052 8.84051 123.911 10.3676 123.911 12.5444V22.44C123.911 24.7279 124.067 26.1939 124.377 26.8381C124.697 27.4822 125.168 27.8043 125.789 27.8043C126.41 27.8043 126.852 27.6766 127.114 27.4211C127.386 27.1546 127.614 26.7159 127.798 26.1051C127.992 25.4831 128.089 24.2725 128.089 22.4733V12.4278ZM128.075 0H130.258V29.7035H128.075V27.8043C127.57 29.1926 126.604 29.8867 125.178 29.8867C123.557 29.8756 122.528 28.7705 122.092 26.5715C121.849 25.3609 121.728 23.7339 121.728 21.6904V12.9109C121.728 9.55686 122.077 7.30231 122.776 6.14727C123.484 4.99222 124.479 4.4147 125.76 4.4147C126.255 4.4147 126.711 4.62017 127.129 5.0311C127.556 5.43092 127.871 5.91959 128.075 6.49711V0Z" fill="#333333"/>
<path fill-rule="evenodd" clip-rule="evenodd" d="M153.384 8.01449L159.709 15.252C160.097 15.6962 160.097 16.4163 159.709 16.8604L153.384 24.098C152.996 24.5421 152.367 24.5421 151.979 24.098C151.591 23.6538 151.591 22.9337 151.979 22.4896L156.607 17.1935H139.13V14.919H156.607L151.979 9.62284C151.591 9.17871 151.591 8.45863 151.979 8.01449C152.367 7.57036 152.996 7.57036 153.384 8.01449Z" fill="#EFC224"/>
<path d="M3.97516 14.9189H0V17.1935H3.97516V14.9189Z" fill="#EFC224"/>
</g>
<defs>
<clipPath id="clip0_3_192">
<rect width="160" height="35" fill="white"/>
</clipPath>
</defs>
</svg>
